<svg xmlns="http://www.w3.org/2000/svg" xmlns:xlink="http://www.w3.org/1999/xlink" xmlns:lucid="lucid" width="542" height="718"><g transform="translate(-39 261)" lucid:page-tab-id="0_0"><path d="M340-114a6 6 0 0 1 6-6h208a6 6 0 0 1 6 6v64a6 6 0 0 1-6 6H346a6 6 0 0 1-6-6z" stroke="#b5d6ff" stroke-width="2" fill="#cfe4ff"/><use xlink:href="#a" transform="matrix(1,0,0,1,348,-112) translate(59.99316406250001 35.322265625)"/><path d="M340 6a6 6 0 0 1 6-6h208a6 6 0 0 1 6 6v64a6 6 0 0 1-6 6H346a6 6 0 0 1-6-6z" stroke="#b5d6ff" stroke-width="2" fill="#cfe4ff"/><use xlink:href="#b" transform="matrix(1,0,0,1,348,8) translate(65.994140625 35.322265625)"/><path d="M450-2v-22.5" stroke="#1071e5" stroke-width="2" fill="none"/><path d="M450.98-1h-1.96v-1.03h1.96z" stroke="#1071e5" stroke-width=".05" fill="#1071e5"/><path d="M450-39.76l4.63 14.26h-9.26z" stroke="#1071e5" stroke-width="2" fill="#1071e5"/><path d="M340 126a6 6 0 0 1 6-6h208a6 6 0 0 1 6 6v64a6 6 0 0 1-6 6H346a6 6 0 0 1-6-6z" stroke="#b5d6ff" stroke-width="2" fill="#cfe4ff"/><use xlink:href="#c" transform="matrix(1,0,0,1,348,128) translate(35.989257812500014 35.322265625)"/><path d="M450 118V95.5" stroke="#1071e5" stroke-width="2" fill="none"/><path d="M450.98 119h-1.96v-1.03h1.96z" stroke="#1071e5" stroke-width=".05" fill="#1071e5"/><path d="M450 80.24l4.63 14.26h-9.26z" stroke="#1071e5" stroke-width="2" fill="#1071e5"/><path d="M340-234a6 6 0 0 1 6-6h208a6 6 0 0 1 6 6v64a6 6 0 0 1-6 6H346a6 6 0 0 1-6-6z" stroke="#b5d6ff" stroke-width="2" fill="#cfe4ff"/><use xlink:href="#d" transform="matrix(1,0,0,1,348,-232) translate(41.99023437500001 35.322265625)"/><path d="M450-122v-22.5" stroke="#1071e5" stroke-width="2" fill="none"/><path d="M450.98-121h-1.96v-1.03h1.96z" stroke="#1071e5" stroke-width=".05" fill="#1071e5"/><path d="M450-159.76l4.63 14.26h-9.26z" stroke="#1071e5" stroke-width="2" fill="#1071e5"/><path d="M340 246a6 6 0 0 1 6-6h208a6 6 0 0 1 6 6v64a6 6 0 0 1-6 6H346a6 6 0 0 1-6-6z" stroke="#b5d6ff" stroke-width="2" fill="#cfe4ff"/><use xlink:href="#e" transform="matrix(1,0,0,1,348,248) translate(53.99218750000001 35.322265625)"/><path d="M450 238v-22.5" stroke="#1071e5" stroke-width="2" fill="none"/><path d="M450.98 239h-1.96v-1.03h1.96z" stroke="#1071e5" stroke-width=".05" fill="#1071e5"/><path d="M450 200.24l4.63 14.26h-9.26z" stroke="#1071e5" stroke-width="2" fill="#1071e5"/><path d="M60-54a6 6 0 0 1 6-6h208a6 6 0 0 1 6 6v64a6 6 0 0 1-6 6H66a6 6 0 0 1-6-6z" stroke="#ced4db" stroke-width="2" fill="#f2f3f5"/><use xlink:href="#f" transform="matrix(1,0,0,1,68,-52) translate(59.99316406250001 35.322265625)"/><path d="M282-22h22a6 6 0 0 0 6-6v-48a6 6 0 0 1 6-6h4.5" stroke="#3a414a" stroke-width="2" fill="none"/><path d="M282.03-21.02H281v-1.96h1.03z" stroke="#3a414a" stroke-width=".05" fill="#3a414a"/><path d="M335.76-82l-14.26 4.64v-9.28z" stroke="#3a414a" stroke-width="2" fill="#3a414a"/><path d="M340 366a6 6 0 0 1 6-6h208a6 6 0 0 1 6 6v64a6 6 0 0 1-6 6H346a6 6 0 0 1-6-6z" stroke="#b5d6ff" stroke-width="2" fill="#cfe4ff"/><use xlink:href="#g" transform="matrix(1,0,0,1,348.00000000000006,368) translate(77.99609375 35.322265625)"/><path d="M450 358v-22.5" stroke="#1071e5" stroke-width="2" fill="none"/><path d="M450.98 359h-1.96v-1.03h1.96z" stroke="#1071e5" stroke-width=".05" fill="#1071e5"/><path d="M450 320.24l4.63 14.26h-9.26z" stroke="#1071e5" stroke-width="2" fill="#1071e5"/><path d="M60 366a6 6 0 0 1 6-6h208a6 6 0 0 1 6 6v64a6 6 0 0 1-6 6H66a6 6 0 0 1-6-6z" stroke="#ced4db" stroke-width="2" fill="#f2f3f5"/><use xlink:href="#h" transform="matrix(1,0,0,1,68,368) translate(17.986328125000014 35.322265625)"/><path d="M282 398h38.5" stroke="#3a414a" stroke-width="2" fill="none"/><path d="M282.03 398.98H281v-1.96h1.03z" stroke="#3a414a" stroke-width=".05" fill="#3a414a"/><path d="M335.76 398l-14.26 4.63v-9.26z" stroke="#3a414a" stroke-width="2" fill="#3a414a"/><path d="M282-22h22a6 6 0 0 1 6 6v48a6 6 0 0 0 6 6h4.5" stroke="#3a414a" stroke-width="2" fill="none"/><path d="M282.03-21.02H281v-1.96h1.03z" stroke="#3a414a" stroke-width=".05" fill="#3a414a"/><path d="M335.76 38l-14.26 4.63v-9.27z" stroke="#3a414a" stroke-width="2" fill="#3a414a"/><defs><path fill="#282c33" d="M1000-272c3 95 12 159 101 161 21 0 41-3 59-7V-6c-44 10-86 16-139 16-141 2-191-84-197-217h-6C748-76 648 20 446 20c-207 0-318-120-318-322 0-266 194-348 454-354l236-4c12-191-40-305-222-305-140 0-220 47-232 172l-188-17c33-204 181-292 423-292 255 0 401 118 401 364v466zm-683-27c0 109 63 184 175 182 166-3 259-96 306-217 24-65 20-120 20-200-232 7-501-28-501 235" id="i"/><path fill="#282c33" d="M698-1104c312 3 392 244 392 558 0 315-82 566-392 566-169 0-277-65-331-184h-5c8 188 2 394 4 589H185V-858c0-76-1-156-6-224h175c6 52 9 120 10 178h4c58-122 150-202 330-200zm-49 991c225 0 255-203 255-433 0-225-32-419-253-419-236 0-285 192-285 441 0 237 53 411 283 411" id="j"/><path fill="#282c33" d="M496 0v-299h235V0H496" id="k"/><path fill="#282c33" d="M904-1102c199 0 220 177 220 381V0H956v-686c-3-114 0-215-60-264-70-33-125-4-158 71-26 56-39 140-39 252V0H531v-686c-3-114-1-215-61-264-78-41-136 24-157 84-24 69-39 159-39 259V0H105c-3-360 6-732-6-1082h149c6 50 3 123 8 175 36-100 83-195 216-195 135 0 166 79 196 196 42-105 93-196 236-196" id="l"/><path fill="#282c33" d="M390 276c167 0 266-82 266-251v-965H249v-142h587V28c-4 270-165 397-431 397-107 0-208-16-288-43V242c80 18 173 34 273 34zm246-1568v-192h200v192H636" id="m"/><path fill="#282c33" d="M873-819c-18-114-119-146-250-146-163 0-245 50-245 151 0 151 170 148 294 185 182 54 388 94 388 320 0 240-189 325-439 329-245 4-410-69-454-268l159-31c24 133 136 168 295 165 144-2 270-31 270-171 0-164-195-160-331-202-167-52-350-87-350-299 0-218 173-315 413-313 220 2 373 77 412 260" id="n"/><g id="a"><use transform="matrix(0.009765624999999998,0,0,0.009765624999999998,0,0)" xlink:href="#i"/><use transform="matrix(0.009765624999999998,0,0,0.009765624999999998,12.001953124999998,0)" xlink:href="#j"/><use transform="matrix(0.009765624999999998,0,0,0.009765624999999998,24.003906249999996,0)" xlink:href="#j"/><use transform="matrix(0.009765624999999998,0,0,0.009765624999999998,36.00585937499999,0)" xlink:href="#k"/><use transform="matrix(0.009765624999999998,0,0,0.009765624999999998,48.00781249999999,0)" xlink:href="#l"/><use transform="matrix(0.009765624999999998,0,0,0.009765624999999998,60.009765624999986,0)" xlink:href="#m"/><use transform="matrix(0.009765624999999998,0,0,0.009765624999999998,72.01171874999999,0)" xlink:href="#n"/></g><path fill="#282c33" d="M839-1102c70 0 148 7 206 17v167c-112-18-268-36-363 15-129 69-208 203-208 395V0H294c-10-367 32-789-52-1082h171c21 75 41 161 48 250h5c67-152 152-270 373-270" id="o"/><path fill="#282c33" d="M615-1102c343 0 484 203 482 560-1 347-147 562-488 562-336 0-475-219-479-562-4-349 156-560 485-560zm-8 989c240 0 301-180 301-429 0-245-55-427-290-427-236 0-299 181-299 427 0 243 61 429 288 429" id="p"/><path fill="#282c33" d="M528 20c-247 0-343-132-343-381v-721h180v686c-4 177 45 284 224 277 194-8 279-136 279-336v-627h181c3 360-6 732 6 1082H885c-4-54-7-126-8-185h-3C809-64 714 20 528 20" id="q"/><path fill="#282c33" d="M682 16c-209 0-323-80-324-285v-671H190v-142h170l58-282h120v282h432v142H538v652c2 114 60 155 182 155 106 0 209-16 297-34v137C921-4 806 16 682 16" id="r"/><path fill="#282c33" d="M617-1102c355 0 481 238 477 599H322c5 222 84 388 301 388 144 0 244-59 284-166l158 45C1002-72 854 20 623 20c-342 0-490-220-490-568 0-346 151-554 484-554zm291 461c-18-192-90-328-289-328-194 0-287 128-295 328h584" id="s"/><g id="b"><use transform="matrix(0.009765624999999998,0,0,0.009765624999999998,0,0)" xlink:href="#o"/><use transform="matrix(0.009765624999999998,0,0,0.009765624999999998,12.001953124999998,0)" xlink:href="#p"/><use transform="matrix(0.009765624999999998,0,0,0.009765624999999998,24.003906249999996,0)" xlink:href="#q"/><use transform="matrix(0.009765624999999998,0,0,0.009765624999999998,36.00585937499999,0)" xlink:href="#r"/><use transform="matrix(0.009765624999999998,0,0,0.009765624999999998,48.00781249999999,0)" xlink:href="#s"/><use transform="matrix(0.009765624999999998,0,0,0.009765624999999998,60.009765624999986,0)" xlink:href="#n"/></g><path fill="#282c33" d="M631 20c-350 0-501-215-501-562 0-355 162-560 502-560 250 0 399 118 446 323l-192 14c-23-124-109-196-262-196-242 0-305 171-305 415 1 245 61 427 304 427 151 0 248-77 267-215l190 12C1039-107 883 20 631 20" id="t"/><path fill="#282c33" d="M706-1102c241 0 344 136 343 381V0H868v-695c1-168-57-273-220-268-190 6-283 138-283 336V0H185c-3-360 6-732-6-1082h170c4 54 7 126 8 185h3c63-121 164-204 346-205" id="u"/><path fill="#282c33" d="M736-142h380V0H134v-142h422v-1200H267v-142h469v1342" id="v"/><g id="c"><use transform="matrix(0.009765624999999998,0,0,0.009765624999999998,0,0)" xlink:href="#t"/><use transform="matrix(0.009765624999999998,0,0,0.009765624999999998,12.001953124999998,0)" xlink:href="#p"/><use transform="matrix(0.009765624999999998,0,0,0.009765624999999998,24.003906249999996,0)" xlink:href="#u"/><use transform="matrix(0.009765624999999998,0,0,0.009765624999999998,36.00585937499999,0)" xlink:href="#r"/><use transform="matrix(0.009765624999999998,0,0,0.009765624999999998,48.00781249999999,0)" xlink:href="#o"/><use transform="matrix(0.009765624999999998,0,0,0.009765624999999998,60.009765624999986,0)" xlink:href="#p"/><use transform="matrix(0.009765624999999998,0,0,0.009765624999999998,72.01171874999999,0)" xlink:href="#v"/><use transform="matrix(0.009765624999999998,0,0,0.009765624999999998,84.01367187499999,0)" xlink:href="#v"/><use transform="matrix(0.009765624999999998,0,0,0.009765624999999998,96.01562499999999,0)" xlink:href="#s"/><use transform="matrix(0.009765624999999998,0,0,0.009765624999999998,108.01757812499999,0)" xlink:href="#o"/><use transform="matrix(0.009765624999999998,0,0,0.009765624999999998,120.01953124999997,0)" xlink:href="#n"/></g><path fill="#282c33" d="M715 0H502L69-1082h202c94 253 197 500 285 758 19 57 36 126 52 183 96-335 234-626 350-941h201" id="w"/><g id="d"><use transform="matrix(0.009765624999999998,0,0,0.009765624999999998,0,0)" xlink:href="#n"/><use transform="matrix(0.009765624999999998,0,0,0.009765624999999998,12.001953124999998,0)" xlink:href="#s"/><use transform="matrix(0.009765624999999998,0,0,0.009765624999999998,24.003906249999996,0)" xlink:href="#o"/><use transform="matrix(0.009765624999999998,0,0,0.009765624999999998,36.00585937499999,0)" xlink:href="#w"/><use transform="matrix(0.009765624999999998,0,0,0.009765624999999998,48.00781249999999,0)" xlink:href="#s"/><use transform="matrix(0.009765624999999998,0,0,0.009765624999999998,60.009765624999986,0)" xlink:href="#o"/><use transform="matrix(0.009765624999999998,0,0,0.009765624999999998,72.01171874999999,0)" xlink:href="#k"/><use transform="matrix(0.009765624999999998,0,0,0.009765624999999998,84.01367187499999,0)" xlink:href="#l"/><use transform="matrix(0.009765624999999998,0,0,0.009765624999999998,96.01562499999999,0)" xlink:href="#m"/><use transform="matrix(0.009765624999999998,0,0,0.009765624999999998,108.01757812499999,0)" xlink:href="#n"/></g><path fill="#282c33" d="M745-142h380V0H143v-142h422v-798H246v-142h499v940zM545-1292v-192h200v192H545" id="x"/><g id="e"><use transform="matrix(0.009765624999999998,0,0,0.009765624999999998,0,0)" xlink:href="#n"/><use transform="matrix(0.009765624999999998,0,0,0.009765624999999998,12.001953124999998,0)" xlink:href="#s"/><use transform="matrix(0.009765624999999998,0,0,0.009765624999999998,24.003906249999996,0)" xlink:href="#o"/><use transform="matrix(0.009765624999999998,0,0,0.009765624999999998,36.00585937499999,0)" xlink:href="#w"/><use transform="matrix(0.009765624999999998,0,0,0.009765624999999998,48.00781249999999,0)" xlink:href="#x"/><use transform="matrix(0.009765624999999998,0,0,0.009765624999999998,60.009765624999986,0)" xlink:href="#t"/><use transform="matrix(0.009765624999999998,0,0,0.009765624999999998,72.01171874999999,0)" xlink:href="#s"/><use transform="matrix(0.009765624999999998,0,0,0.009765624999999998,84.01367187499999,0)" xlink:href="#n"/></g><path fill="#3a414a" d="M617-1102c355 0 481 238 477 599H322c5 222 84 388 301 388 144 0 244-59 284-166l158 45C1002-72 854 20 623 20c-342 0-490-220-490-568 0-346 151-554 484-554zm291 461c-18-192-90-328-289-328-194 0-287 128-295 328h584" id="y"/><path fill="#3a414a" d="M932 0L611-444 288 0H94l415-556-397-526h199l300 421 298-421h201L713-558 1133 0H932" id="z"/><path fill="#3a414a" d="M698-1104c312 3 392 244 392 558 0 315-82 566-392 566-169 0-277-65-331-184h-5c8 188 2 394 4 589H185V-858c0-76-1-156-6-224h175c6 52 9 120 10 178h4c58-122 150-202 330-200zm-49 991c225 0 255-203 255-433 0-225-32-419-253-419-236 0-285 192-285 441 0 237 53 411 283 411" id="A"/><path fill="#3a414a" d="M839-1102c70 0 148 7 206 17v167c-112-18-268-36-363 15-129 69-208 203-208 395V0H294c-10-367 32-789-52-1082h171c21 75 41 161 48 250h5c67-152 152-270 373-270" id="B"/><path fill="#3a414a" d="M873-819c-18-114-119-146-250-146-163 0-245 50-245 151 0 151 170 148 294 185 182 54 388 94 388 320 0 240-189 325-439 329-245 4-410-69-454-268l159-31c24 133 136 168 295 165 144-2 270-31 270-171 0-164-195-160-331-202-167-52-350-87-350-299 0-218 173-315 413-313 220 2 373 77 412 260" id="C"/><g id="f"><use transform="matrix(0.009765624999999998,0,0,0.009765624999999998,0,0)" xlink:href="#y"/><use transform="matrix(0.009765624999999998,0,0,0.009765624999999998,12.001953124999998,0)" xlink:href="#z"/><use transform="matrix(0.009765624999999998,0,0,0.009765624999999998,24.003906249999996,0)" xlink:href="#A"/><use transform="matrix(0.009765624999999998,0,0,0.009765624999999998,36.00585937499999,0)" xlink:href="#B"/><use transform="matrix(0.009765624999999998,0,0,0.009765624999999998,48.00781249999999,0)" xlink:href="#y"/><use transform="matrix(0.009765624999999998,0,0,0.009765624999999998,60.009765624999986,0)" xlink:href="#C"/><use transform="matrix(0.009765624999999998,0,0,0.009765624999999998,72.01171874999999,0)" xlink:href="#C"/></g><path fill="#282c33" d="M865-914c-3-187-2-380-2-570h180v1261c0 76 1 155 6 223H877c-8-49-9-116-10-174h-5C801-44 708 26 530 26c-135 0-234-46-297-139s-95-232-95-419c0-377 131-566 392-566 176 0 271 63 335 184zm-286-51c-222 0-255 197-255 427 0 229 31 425 253 425 237 0 286-195 286-441 0-238-52-411-284-411" id="D"/><g id="g"><use transform="matrix(0.009765624999999998,0,0,0.009765624999999998,0,0)" xlink:href="#D"/><use transform="matrix(0.009765624999999998,0,0,0.009765624999999998,12.001953124999998,0)" xlink:href="#i"/><use transform="matrix(0.009765624999999998,0,0,0.009765624999999998,24.003906249999996,0)" xlink:href="#r"/><use transform="matrix(0.009765624999999998,0,0,0.009765624999999998,36.00585937499999,0)" xlink:href="#i"/></g><path fill="#3a414a" d="M365-904c58-129 161-200 334-200 130 0 228 46 293 138s98 233 98 420c0 189-34 331-102 425S824 20 698 20c-170 0-275-64-336-184 0 55-3 116-9 164H179c5-68 6-147 6-223v-1261h180c-2 193 4 394-4 580h4zm283 791c221 0 256-197 256-427 0-229-34-425-254-425-236 0-285 195-285 441 0 237 53 411 283 411" id="E"/><path fill="#3a414a" d="M682 16c-209 0-323-80-324-285v-671H190v-142h170l58-282h120v282h432v142H538v652c2 114 60 155 182 155 106 0 209-16 297-34v137C921-4 806 16 682 16" id="F"/><path fill="#3a414a" d="M334-464v-160h560v160H334" id="G"/><path fill="#3a414a" d="M530 26c-303-6-392-228-392-558 0-187 33-329 98-424s162-142 293-142c178 0 273 69 334 184 1-56 3-122 12-169h175c-6 88-6 180-6 282V425H863c1-202-4-411 4-607h-2C805-59 713 29 530 26zm47-139c234 0 286-193 286-441 0-238-55-411-284-411-223 0-255 198-255 427 0 227 33 425 253 425" id="H"/><path fill="#3a414a" d="M736-142h380V0H134v-142h422v-1200H267v-142h469v1342" id="I"/><path fill="#3a414a" d="M745-142h380V0H143v-142h422v-798H246v-142h499v940zM545-1292v-192h200v192H545" id="J"/><path fill="#3a414a" d="M1060-1016c0 191-128 285-295 323v4c154 18 262 91 313 209 14 35 21 72 21 110 0 277-194 390-478 390-292 0-457-129-493-382l186-17c24 161 121 250 307 250 172 1 298-80 291-247-8-208-220-239-446-233v-156c217 9 409-34 409-232 0-152-102-225-264-225-159 0-264 88-278 233l-181-14c33-239 196-367 461-367 264 0 447 102 447 354" id="K"/><g id="h"><use transform="matrix(0.009765624999999998,0,0,0.009765624999999998,0,0)" xlink:href="#E"/><use transform="matrix(0.009765624999999998,0,0,0.009765624999999998,12.001953124999998,0)" xlink:href="#y"/><use transform="matrix(0.009765624999999998,0,0,0.009765624999999998,24.003906249999996,0)" xlink:href="#F"/><use transform="matrix(0.009765624999999998,0,0,0.009765624999999998,36.00585937499999,0)" xlink:href="#F"/><use transform="matrix(0.009765624999999998,0,0,0.009765624999999998,48.00781249999999,0)" xlink:href="#y"/><use transform="matrix(0.009765624999999998,0,0,0.009765624999999998,60.009765624999986,0)" xlink:href="#B"/><use transform="matrix(0.009765624999999998,0,0,0.009765624999999998,72.01171874999999,0)" xlink:href="#G"/><use transform="matrix(0.009765624999999998,0,0,0.009765624999999998,84.01367187499999,0)" xlink:href="#C"/><use transform="matrix(0.009765624999999998,0,0,0.009765624999999998,96.01562499999999,0)" xlink:href="#H"/><use transform="matrix(0.009765624999999998,0,0,0.009765624999999998,108.01757812499999,0)" xlink:href="#I"/><use transform="matrix(0.009765624999999998,0,0,0.009765624999999998,120.01953124999997,0)" xlink:href="#J"/><use transform="matrix(0.009765624999999998,0,0,0.009765624999999998,132.02148437499997,0)" xlink:href="#F"/><use transform="matrix(0.009765624999999998,0,0,0.009765624999999998,144.02343749999997,0)" xlink:href="#y"/><use transform="matrix(0.009765624999999998,0,0,0.009765624999999998,156.02539062499997,0)" xlink:href="#K"/></g></defs></g></svg>